# 3ds Max Wavefront OBJ Exporter v0.97b - (c)2007 guruware
# File Created: 29.06.2017 22:19:32

mtllib cube.mtl

#
# object Box001
#

v  -28.6802 0.0000 44.5315
v  -28.6802 0.0000 18.1970
v  -6.7347 0.0000 18.1970
v  -6.7347 0.0000 44.5315
v  15.2108 0.0000 18.1970
v  15.2108 0.0000 44.5315
v  37.1563 -0.9668 22.6956
v  37.1563 0.0000 44.5315
v  -28.6802 0.0000 -8.1376
v  -6.7347 0.0000 -8.1376
v  15.2108 0.0000 -8.1376
v  37.1563 -0.9668 -12.6362
v  -28.6802 0.0000 -34.4721
v  -6.7347 0.0000 -34.4721
v  15.2108 0.0000 -34.4721
v  37.1563 0.0000 -34.4721
v  -30.2726 78.0540 46.4424
v  -7.2655 78.0540 46.4424
v  -7.2655 78.0540 18.8339
v  -30.2726 78.0540 18.8339
v  15.7416 78.0540 46.4424
v  15.7416 78.0540 18.8339
v  38.7487 78.0540 46.4424
v  38.7487 78.0540 18.8339
v  -7.2655 78.0540 -8.7745
v  -30.2726 78.0540 -8.7745
v  15.7416 78.0540 -8.7745
v  38.7487 78.0540 -8.7745
v  -7.2655 78.0540 -36.3830
v  -30.2726 78.0540 -36.3830
v  15.7416 78.0540 -36.3830
v  38.7487 78.0540 -36.3830
v  -6.7347 26.0180 44.5315
v  -28.6802 26.0180 44.5315
v  15.2108 26.0180 44.5315
v  37.1563 26.0180 44.5315
v  -6.7347 52.0360 44.5315
v  -28.6802 52.0360 44.5315
v  15.2108 52.0360 44.5315
v  37.1563 52.0360 44.5315
v  37.1563 26.0180 22.6956
v  37.1563 26.0180 -12.6362
v  37.1563 26.0180 -34.4721
v  37.1563 53.0029 22.6956
v  37.1563 53.0029 -12.6362
v  37.1563 52.0360 -34.4721
v  21.7928 18.2146 -34.4721
v  -13.3167 18.2146 -34.4721
v  -28.6802 26.0180 -34.4721
v  21.7928 59.8395 -34.4721
v  -13.3167 59.8395 -34.4721
v  -28.6802 52.0360 -34.4721
v  -28.6802 26.0180 -8.1376
v  -28.6802 26.0180 18.1969
v  -28.6802 52.0360 -8.1376
v  -28.6802 52.0360 18.1969
# 56 vertices

vn 0.0000 -1.0000 -0.0000
vn -0.0220 -0.9998 -0.0000
vn -0.0110 -0.9999 0.0110
vn -0.0330 -0.9994 0.0111
vn 0.0000 -0.9990 0.0442
vn -0.0181 -0.9998 -0.0047
vn -0.0491 -0.9985 -0.0249
vn -0.0235 -0.9995 -0.0196
vn 0.0000 1.0000 -0.0000
vn 0.0000 0.0000 1.0000
vn 0.0000 -0.0366 0.9993
vn 0.0000 -0.0373 0.9993
vn 0.0000 -0.0732 0.9973
vn 1.0000 0.0000 -0.0000
vn 0.9995 -0.0323 -0.0008
vn 0.9995 -0.0311 -0.0007
vn 0.9995 -0.0318 0.0004
vn 0.9995 -0.0303 0.0013
vn 0.9980 -0.0629 -0.0006
vn 0.9981 -0.0611 -0.0000
vn 0.9980 -0.0634 -0.0000
vn 0.9981 -0.0623 0.0012
vn 0.0000 0.0000 -1.0000
vn -0.0239 -0.0678 -0.9974
vn -0.0082 -0.0334 -0.9994
vn 0.0074 -0.0532 -0.9986
vn 0.0131 -0.0258 -0.9996
vn -0.0075 -0.0981 -0.9952
vn 0.0000 -0.0732 -0.9973
vn 0.0000 -0.1043 -0.9945
vn 0.0164 -0.0892 -0.9959
vn -1.0000 0.0000 -0.0000
vn -0.9995 -0.0306 -0.0000
vn -0.9995 -0.0313 -0.0000
vn -0.9981 -0.0611 -0.0000
# 35 vertex normals

vt 1.0000 0.0000 0.0000
vt 1.0000 0.3333 0.0000
vt 0.6667 0.3333 0.0000
vt 0.6667 0.0000 0.0000
vt 0.3333 0.3333 0.0000
vt 0.3333 0.0000 0.0000
vt -0.0000 0.3333 0.0000
vt -0.0000 0.0000 0.0000
vt 1.0000 0.6667 0.0000
vt 0.6667 0.6667 0.0000
vt 0.3333 0.6667 0.0000
vt -0.0000 0.6667 0.0000
vt 1.0000 1.0000 0.0000
vt 0.6667 1.0000 0.0000
vt 0.3333 1.0000 0.0000
vt -0.0000 1.0000 0.0000
vt 0.0000 0.0000 0.0000
vt 0.0000 0.3333 0.0000
vt 0.0000 0.6667 0.0000
vt 0.0000 1.0000 0.0000
# 20 texture coords

g Box001
usemtl Material__55
s 1
f 1/1/1 2/2/1 3/3/1 
f 3/3/1 4/4/1 1/1/1 
f 4/4/1 3/3/1 5/5/2 
f 5/5/2 6/6/3 4/4/1 
f 6/6/3 5/5/2 7/7/4 
f 7/7/4 8/8/5 6/6/3 
f 2/2/1 9/9/1 10/10/1 
f 10/10/1 3/3/1 2/2/1 
f 3/3/1 10/10/1 11/11/6 
f 11/11/6 5/5/2 3/3/1 
f 5/5/2 11/11/6 12/12/7 
f 12/12/7 7/7/4 5/5/2 
f 9/9/1 13/13/1 14/14/1 
f 14/14/1 10/10/1 9/9/1 
f 10/10/1 14/14/1 15/15/1 
f 15/15/1 11/11/6 10/10/1 
f 11/11/6 15/15/1 16/16/8 
f 16/16/8 12/12/7 11/11/6 
f 17/17/9 18/6/9 19/5/9 
f 19/5/9 20/18/9 17/17/9 
f 18/6/9 21/4/9 22/3/9 
f 22/3/9 19/5/9 18/6/9 
f 21/4/9 23/1/9 24/2/9 
f 24/2/9 22/3/9 21/4/9 
f 20/18/9 19/5/9 25/11/9 
f 25/11/9 26/19/9 20/18/9 
f 19/5/9 22/3/9 27/10/9 
f 27/10/9 25/11/9 19/5/9 
f 22/3/9 24/2/9 28/9/9 
f 28/9/9 27/10/9 22/3/9 
f 26/19/9 25/11/9 29/15/9 
f 29/15/9 30/20/9 26/19/9 
f 25/11/9 27/10/9 31/14/9 
f 31/14/9 29/15/9 25/11/9 
f 27/10/9 28/9/9 32/13/9 
f 32/13/9 31/14/9 27/10/9 
s 2
f 1/17/10 4/6/10 33/5/10 
f 33/5/10 34/18/10 1/17/10 
f 4/6/10 6/4/10 35/3/10 
f 35/3/10 33/5/10 4/6/10 
f 6/4/10 8/1/10 36/2/10 
f 36/2/10 35/3/10 6/4/10 
f 34/18/10 33/5/10 37/11/11 
f 37/11/11 38/19/12 34/18/10 
f 33/5/10 35/3/10 39/10/11 
f 39/10/11 37/11/11 33/5/10 
f 35/3/10 36/2/10 40/9/12 
f 40/9/12 39/10/11 35/3/10 
f 38/19/12 37/11/11 18/15/13 
f 18/15/13 17/20/13 38/19/12 
f 37/11/11 39/10/11 21/14/13 
f 21/14/13 18/15/13 37/11/11 
f 39/10/11 40/9/12 23/13/13 
f 23/13/13 21/14/13 39/10/11 
s 4
f 8/17/14 7/6/14 41/5/14 
f 41/5/14 36/18/14 8/17/14 
usemtl Material__94
f 7/6/14 12/4/14 42/3/14 
f 42/3/14 41/5/14 7/6/14 
usemtl Material__55
f 12/4/14 16/1/14 43/2/14 
f 43/2/14 42/3/14 12/4/14 
f 36/18/14 41/5/14 44/11/15 
f 44/11/15 40/19/16 36/18/14 
usemtl Material__94
f 41/5/14 42/3/14 45/10/17 
f 45/10/17 44/11/15 41/5/14 
usemtl Material__55
f 42/3/14 43/2/14 46/9/18 
f 46/9/18 45/10/17 42/3/14 
f 40/19/16 44/11/15 24/15/19 
f 24/15/19 23/20/20 40/19/16 
f 44/11/15 45/10/17 28/14/21 
f 28/14/21 24/15/19 44/11/15 
f 45/10/17 46/9/18 32/13/22 
f 32/13/22 28/14/21 45/10/17 
s 2
f 16/17/23 15/6/23 47/5/23 
f 47/5/23 43/18/23 16/17/23 
f 15/6/23 14/4/23 48/3/23 
f 48/3/23 47/5/23 15/6/23 
f 14/4/23 13/1/23 49/2/23 
f 49/2/23 48/3/23 14/4/23 
f 43/18/23 47/5/23 50/11/24 
f 50/11/24 46/19/25 43/18/23 
usemtl Material__107
f 47/5/23 48/3/23 51/10/26 
f 51/10/26 50/11/24 47/5/23 
usemtl Material__55
f 48/3/23 49/2/23 52/9/27 
f 52/9/27 51/10/26 48/3/23 
f 46/19/25 50/11/24 31/15/28 
f 31/15/28 32/20/29 46/19/25 
f 50/11/24 51/10/26 29/14/30 
f 29/14/30 31/15/28 50/11/24 
f 51/10/26 52/9/27 30/13/31 
f 30/13/31 29/14/30 51/10/26 
s 4
f 13/17/32 9/6/32 53/5/32 
f 53/5/32 49/18/32 13/17/32 
f 9/6/32 2/4/32 54/3/32 
f 54/3/32 53/5/32 9/6/32 
f 2/4/32 1/1/32 34/2/32 
f 34/2/32 54/3/32 2/4/32 
f 49/18/32 53/5/32 55/11/33 
f 55/11/33 52/19/34 49/18/32 
f 53/5/32 54/3/32 56/10/33 
f 56/10/33 55/11/33 53/5/32 
f 54/3/32 34/2/32 38/9/34 
f 38/9/34 56/10/33 54/3/32 
f 52/19/34 55/11/33 26/15/35 
f 26/15/35 30/20/35 52/19/34 
f 55/11/33 56/10/33 20/14/35 
f 20/14/35 26/15/35 55/11/33 
f 56/10/33 38/9/34 17/13/35 
f 17/13/35 20/14/35 56/10/33 
# 108 faces

